<svg width="18" height="18" viewBox="0 0 18 18" fill="none" xmlns="http://www.w3.org/2000/svg">
<path d="M9.00008 0.666504C4.40841 0.666504 0.666748 4.40817 0.666748 8.99984C0.666748 13.5915 4.40841 17.3332 9.00008 17.3332C13.5917 17.3332 17.3334 13.5915 17.3334 8.99984C17.3334 4.40817 13.5917 0.666504 9.00008 0.666504ZM12.3334 9.62484H9.62508V12.3332C9.62508 12.6748 9.34175 12.9582 9.00008 12.9582C8.65842 12.9582 8.37508 12.6748 8.37508 12.3332V9.62484H5.66675C5.32508 9.62484 5.04175 9.3415 5.04175 8.99984C5.04175 8.65817 5.32508 8.37484 5.66675 8.37484H8.37508V5.6665C8.37508 5.32484 8.65842 5.0415 9.00008 5.0415C9.34175 5.0415 9.62508 5.32484 9.62508 5.6665V8.37484H12.3334C12.6751 8.37484 12.9584 8.65817 12.9584 8.99984C12.9584 9.3415 12.6751 9.62484 12.3334 9.62484Z" fill="white"/>
</svg>
